# xmcd CD database file
#
# Track frame offsets:
#	150
#	15620
#	45349
#	64429
#	82542
#	101436
#	126780
#	153531
#	168654
#	185105
#	204226
#	225202
#	250449
#	267422
#	283794
#
# Disc length: 4052 seconds
#
# Revision: 0
# Processed by: cddbd v1.5.2PL0 Copyright (c) Steve Scherf et al.
# Submitted via: CDex 1.70beta2
#
DISCID=c70fd20f
DTITLE=Massimo Farao trio - Jazz Piano trio - CD 4
DYEAR=2007
DGENRE=Jazz
TTITLE0=Holidays
TTITLE1=Those were the days
TTITLE2=13 Jours En France
TTITLE3=Midnight Cruise
TTITLE4=Hymn A Lamour
TTITLE5=Concerto pour une voix
TTITLE6=Autumn Leaves
TTITLE7=Solenzara
TTITLE8=Moulin Rouge
TTITLE9=Softly as in a morning sunrise
TTITLE10=Canson de Marcelino
TTITLE11=My funny Valentine
TTITLE12=Les Champs Elysees
TTITLE13=Live for life
TTITLE14=i left my heart in San Francisco
EXTD=YEAR: 2007
EXTT0=
EXTT1=
EXTT2=
EXTT3=
EXTT4=
EXTT5=
EXTT6=
EXTT7=
EXTT8=
EXTT9=
EXTT10=
EXTT11=
EXTT12=
EXTT13=
EXTT14=
PLAYORDER=
